<svg xmlns="http://www.w3.org/2000/svg" version="1.1" xmlns:xlink="http://www.w3.org/1999/xlink" xmlns:svgjs="http://svgjs.dev/svgjs" width="1500" height="303" viewBox="0 0 1500 303"><g transform="matrix(1,0,0,1,-0.9090848195006629,-0.32520537136048233)"><svg viewBox="0 0 396 80" data-background-color="#ffffff" preserveAspectRatio="xMidYMid meet" height="303" width="1500" xmlns="http://www.w3.org/2000/svg" xmlns:xlink="http://www.w3.org/1999/xlink"><g id="tight-bounds" transform="matrix(1,0,0,1,0.24000160765189094,0.08587888083815187)"><svg viewBox="0 0 395.52 79.82823902301998" height="79.82823902301998" width="395.52"><g><svg viewBox="0 0 566.3359921156522 114.30421962466485" height="79.82823902301998" width="395.52"><g><rect width="7.458807878224985" height="83.1228225201072" x="143.83150916353978" y="15.590698552278823" fill="#ffffff" opacity="1" stroke-width="0" stroke="transparent" fill-opacity="1" class="rect-qz-0" data-fill-palette-color="primary" rx="1%" id="qz-0" data-palette-color="#ffffff"></rect></g><g transform="matrix(1,0,0,1,170.81599211565214,15.797471742627344)"><svg viewBox="0 0 395.52 82.70927613941016" height="82.70927613941016" width="395.52"><g id="textblocktransform"><svg viewBox="0 0 395.52 82.70927613941016" height="82.70927613941016" width="395.52" id="textblock"><g><svg viewBox="0 0 395.52 82.70927613941016" height="82.70927613941016" width="395.52"><g transform="matrix(1,0,0,1,0,0)"><svg width="395.52" viewBox="2.2 -33.9 205.13000000000002 42.9" height="82.70927613941016" data-palette-color="#ffffff"><g class="wordmark-text-0" data-fill-palette-color="primary" id="text-0"><path d="M12.2-1.8L12.2-1.8Q15-1.8 16.78-2.95 18.55-4.1 18.55-6.15L18.55-6.15Q18.55-7.8 17.45-8.8 16.35-9.8 14.73-10.43 13.1-11.05 11.45-11.5L11.45-11.5Q9.4-12.15 7.5-13.03 5.6-13.9 4.4-15.45 3.2-17 3.2-19.55L3.2-19.55Q3.2-23.15 5.83-25.33 8.45-27.5 13.15-27.5L13.15-27.5Q17.15-27.5 19.48-25.83 21.8-24.15 21.8-21.25L21.8-21.25Q21.8-19.7 21.1-18.78 20.4-17.85 19.1-17.85L19.1-17.85Q17.95-17.85 17.2-18.55 16.45-19.25 16.45-20.35L16.45-20.35Q16.45-21.3 16.95-22.08 17.45-22.85 18.25-23.2L18.25-23.2Q17.5-24.25 16.32-24.73 15.15-25.2 13.3-25.2L13.3-25.2Q10.3-25.2 8.8-24.13 7.3-23.05 7.3-20.95L7.3-20.95Q7.3-19.45 8.03-18.57 8.75-17.7 10.15-17.1 11.55-16.5 13.6-15.85L13.6-15.85Q15.3-15.35 16.95-14.73 18.6-14.1 19.95-13.2 21.3-12.3 22.1-10.95 22.9-9.6 22.9-7.6L22.9-7.6Q22.9-5.05 21.5-3.23 20.1-1.4 17.65-0.45 15.2 0.5 12 0.5L12 0.5Q7.6 0.5 4.9-1.3 2.2-3.1 2.2-6.15L2.2-6.15Q2.2-7.75 2.93-8.68 3.65-9.6 5-9.6L5-9.6Q6.2-9.6 7.03-8.9 7.85-8.2 7.85-7.05L7.85-7.05Q7.85-6.1 7.33-5.25 6.8-4.4 6.05-4L6.05-4Q6.7-3.05 8.38-2.43 10.05-1.8 12.2-1.8ZM26.95-2.05L30.8-3 30.8-24 26.95-24.95 26.95-27 34.15-27 35.25-22 35.45-22Q36.95-24.55 39.5-26.03 42.05-27.5 44.95-27.5L44.95-27.5Q49.1-27.5 51.1-24.8L51.1-24.8Q52.1-23.4 52.52-20.88 52.95-18.35 52.95-14.05L52.95-14.05 52.95-3 56.8-2.05 56.8 0 44.75 0 44.75-2.05 48.1-3 48.1-14.15Q48.1-17.4 47.92-19 47.75-20.6 47.3-21.5L47.3-21.5Q46.7-22.7 45.57-23.33 44.45-23.95 42.9-23.95L42.9-23.95Q40-23.95 37.9-22.1L37.9-22.1Q35.85-20.25 35.65-16.35L35.65-16.35 35.65-3 39-2.05 39 0 26.95 0 26.95-2.05ZM59.8-5.85L59.8-5.85Q59.8-9.75 63.45-12 67.09-14.25 75.55-15.5L75.55-15.5Q75.34-18.45 75-20.1 74.65-21.75 74.09-22.75L74.09-22.75Q73.4-24.05 72.15-24.68 70.9-25.3 69.45-25.3L69.45-25.3Q68.05-25.3 66.92-24.8 65.8-24.3 65.4-23.45L65.4-23.45Q66.09-22.95 66.42-22.15 66.75-21.35 66.75-20.65L66.75-20.65Q66.75-19.4 65.92-18.68 65.09-17.95 63.9-17.95L63.9-17.95Q62.7-17.95 61.92-18.75 61.15-19.55 61.15-21L61.15-21Q61.15-23.1 62.6-24.55 64.05-26 66.27-26.75 68.5-27.5 70.75-27.5L70.75-27.5Q72.8-27.5 74.52-26.88 76.25-26.25 77.45-25.05L77.45-25.05Q80.55-21.95 80.55-14.05L80.55-14.05 80.55-6.8Q80.55-4.35 80.87-3.4 81.2-2.45 82.3-2.45L82.3-2.45 84.55-2.45 84.55-0.95Q80.95 0.5 78.95 0.5L78.95 0.5Q77.4 0.5 76.87-0.63 76.34-1.75 76.34-4.95L76.34-4.95 76.15-4.95Q74.59-2.4 72.05-0.95 69.5 0.5 66.55 0.5L66.55 0.5Q63.4 0.5 61.6-1.2 59.8-2.9 59.8-5.85ZM68.65-2.4L68.65-2.4Q70.05-2.4 71.57-3.13 73.09-3.85 74.15-5.15L74.15-5.15Q74.95-6.15 75.32-7.53 75.7-8.9 75.7-10.75L75.7-10.75Q75.7-11.6 75.65-12.43 75.59-13.25 75.5-14L75.5-14Q71.45-13.2 69.15-12.28 66.84-11.35 65.9-10.08 64.95-8.8 64.95-6.9L64.95-6.9Q64.95-4.75 65.92-3.58 66.9-2.4 68.65-2.4ZM94.69-3.7L94.69 6 99.54 6.95 99.54 9 85.99 9 85.99 6.95 89.84 6 89.84-24 85.99-24.95 85.99-27 93.19-27 93.94-23.15Q95.54-25.65 97.57-26.58 99.59-27.5 102.14-27.5L102.14-27.5Q104.69-27.5 106.77-26.75 108.84-26 110.14-24.35L110.14-24.35Q111.64-22.45 112.52-19.78 113.39-17.1 113.39-14L113.39-14Q113.39-10.8 112.42-7.98 111.44-5.15 109.79-3.25L109.79-3.25Q106.99 0 101.74 0L101.74 0Q99.59 0 97.87-0.83 96.14-1.65 94.69-3.7L94.69-3.7ZM94.64-13.95L94.64-13.95Q94.64-11 95.09-8.8 95.54-6.6 96.39-5.25L96.39-5.25Q97.19-4 98.37-3.3 99.54-2.6 101.39-2.6L101.39-2.6Q103.09-2.6 104.37-3.23 105.64-3.85 106.44-4.95L106.44-4.95Q107.34-6.2 107.74-8.45 108.14-10.7 108.14-13.6L108.14-13.6Q108.14-16.55 107.69-18.7 107.24-20.85 106.39-22.25L106.39-22.25Q105.59-23.55 104.42-24.23 103.24-24.9 101.34-24.9L101.34-24.9Q99.64-24.9 98.37-24.33 97.09-23.75 96.39-22.6L96.39-22.6Q95.59-21.25 95.12-19.07 94.64-16.9 94.64-13.95ZM127.89-1.8L127.89-1.8Q130.69-1.8 132.47-2.95 134.24-4.1 134.24-6.15L134.24-6.15Q134.24-7.8 133.14-8.8 132.04-9.8 130.42-10.43 128.79-11.05 127.14-11.5L127.14-11.5Q125.09-12.15 123.19-13.03 121.29-13.9 120.09-15.45 118.89-17 118.89-19.55L118.89-19.55Q118.89-23.15 121.52-25.33 124.14-27.5 128.84-27.5L128.84-27.5Q132.84-27.5 135.17-25.83 137.49-24.15 137.49-21.25L137.49-21.25Q137.49-19.7 136.79-18.78 136.09-17.85 134.79-17.85L134.79-17.85Q133.64-17.85 132.89-18.55 132.14-19.25 132.14-20.35L132.14-20.35Q132.14-21.3 132.64-22.08 133.14-22.85 133.94-23.2L133.94-23.2Q133.19-24.25 132.02-24.73 130.84-25.2 128.99-25.2L128.99-25.2Q125.99-25.2 124.49-24.13 122.99-23.05 122.99-20.95L122.99-20.95Q122.99-19.45 123.72-18.57 124.44-17.7 125.84-17.1 127.24-16.5 129.29-15.85L129.29-15.85Q130.99-15.35 132.64-14.73 134.29-14.1 135.64-13.2 136.99-12.3 137.79-10.95 138.59-9.6 138.59-7.6L138.59-7.6Q138.59-5.05 137.19-3.23 135.79-1.4 133.34-0.45 130.89 0.5 127.69 0.5L127.69 0.5Q123.29 0.5 120.59-1.3 117.89-3.1 117.89-6.15L117.89-6.15Q117.89-7.75 118.62-8.68 119.34-9.6 120.69-9.6L120.69-9.6Q121.89-9.6 122.72-8.9 123.54-8.2 123.54-7.05L123.54-7.05Q123.54-6.1 123.02-5.25 122.49-4.4 121.74-4L121.74-4Q122.39-3.05 124.07-2.43 125.74-1.8 127.89-1.8ZM146.14-24.5L141.29-24.5 141.29-26.3 146.14-27 146.79-33.3 150.99-33.9 150.99-27 157.39-27 157.39-24.5 150.99-24.5 150.99-6.65Q150.99-4.95 151.04-4.33 151.09-3.7 151.24-3.3L151.24-3.3Q151.39-2.95 151.79-2.83 152.19-2.7 153.09-2.7L153.09-2.7 156.59-2.7 156.59-1.25Q154.19-0.35 152.36 0.08 150.54 0.5 149.44 0.5L149.44 0.5Q147.19 0.5 146.54-1.35L146.54-1.35Q146.34-1.95 146.24-2.9 146.14-3.85 146.14-5.7L146.14-5.7 146.14-24.5ZM182.74-13.2L182.74-13.2 165.29-13.2Q165.29-9.55 166.29-7.15L166.29-7.15Q167.29-4.85 169.14-3.85 170.99-2.85 173.14-2.85L173.14-2.85Q175.49-2.85 177.44-3.83 179.39-4.8 180.94-6.5L180.94-6.5 182.54-5.3Q180.79-2.9 178.29-1.2 175.79 0.5 171.84 0.5L171.84 0.5Q168.39 0.5 165.74-0.98 163.09-2.45 161.69-5.3L161.69-5.3Q160.94-6.85 160.59-8.75 160.24-10.65 160.24-12.8L160.24-12.8Q160.24-19.8 163.46-23.65 166.69-27.5 172.24-27.5L172.24-27.5Q177.34-27.5 180.11-24.33 182.89-21.15 182.89-15.55L182.89-15.55Q182.89-15.05 182.86-14.63 182.84-14.2 182.74-13.2ZM171.94-24.8L171.94-24.8Q165.94-24.8 165.34-15.65L165.34-15.65 177.84-15.65 177.84-17.3Q177.84-20.9 176.31-22.85 174.79-24.8 171.94-24.8ZM201.93-24.1L201.93-24.1Q201.73-24.25 201.46-24.33 201.18-24.4 200.93-24.4L200.93-24.4Q200.33-24.4 199.63-23.85 198.93-23.3 198.28-22.38 197.63-21.45 197.08-20.25L197.08-20.25Q196.38-18.55 195.98-16.53 195.58-14.5 195.58-12.35L195.58-12.35 195.58-3 200.98-2.05 200.98 0 186.88 0 186.88-2.05 190.73-3 190.73-24 186.88-24.95 186.88-27 194.08-27 195.18-20.4 195.38-20.4Q196.53-23.8 198.48-25.65 200.43-27.5 202.78-27.5L202.78-27.5Q204.73-27.5 206.03-26.28 207.33-25.05 207.33-23L207.33-23Q207.33-21.5 206.56-20.63 205.78-19.75 204.48-19.75L204.48-19.75Q203.18-19.75 202.43-20.58 201.68-21.4 201.68-22.75L201.68-22.75Q201.68-23.05 201.73-23.33 201.78-23.6 201.93-24.1Z" fill="#ffffff" data-fill-palette-color="primary"></path></g></svg></g></svg></g></svg></g></svg></g><g><svg viewBox="0 0 124.3058340896524 114.30421962466485" height="114.30421962466485" width="124.3058340896524"><g><svg xmlns:dc="http://purl.org/dc/elements/1.1/" xmlns:cc="http://creativecommons.org/ns#" xmlns:rdf="http://www.w3.org/1999/02/22-rdf-syntax-ns#" xmlns:svg="http://www.w3.org/2000/svg" xmlns="http://www.w3.org/2000/svg" version="1.1" viewBox="15.000010000000024 25.86205 270.00002005298916 248.27589" xml:space="preserve" style="" x="0" y="0" fill-rule="evenodd" height="114.30421962466485" width="124.3058340896524" class="icon-icon-0" data-fill-palette-color="accent" id="icon-0"><path d="M150 25.862c-29.438 0-53.146 23.707-53.146 53.147 0 15.313 6.341 29.07 16.682 38.793l-30.26 51.982c-4.767-1.399-9.907-2.328-15.129-2.327-29.441 0-53.147 23.707-53.147 53.146 0 29.44 23.707 53.534 53.147 53.535 25.203 0 46.426-17.616 51.983-41.121l59.741 0c5.556 23.505 26.78 41.121 51.983 41.121 29.441 0 53.147-24.094 53.146-53.535 0-29.44-23.705-53.147-53.146-53.146-5.221 0-10.361 0.928-15.13 2.327l-30.257-52.37c10.23-9.713 16.68-23.183 16.68-38.405 0-29.44-23.707-53.147-53.147-53.147z m0 24.828c15.728 0 28.32 12.591 28.32 28.319 0 15.728-12.591 28.319-28.32 28.319-15.726 0-28.318-12.591-28.318-28.319 0-15.728 12.593-28.319 28.318-28.319z m-15.129 79.526c4.77 1.399 9.909 1.94 15.129 1.939 5.277 0 10.316-0.512 15.13-1.939l29.87 51.982c-7.159 6.873-12.292 16.038-14.74 25.992l-60.517 0c-2.474-10.052-7.859-19.09-15.13-25.992l30.258-51.982z m-66.724 62.068c15.727 0 28.32 12.591 28.32 28.319 0 15.728-12.593 28.707-28.32 28.707-15.727 0-28.318-12.979-28.319-28.707 0-15.728 12.593-28.319 28.319-28.319z m163.707 0c15.727 0 28.32 12.591 28.319 28.319 0 15.728-12.591 28.707-28.319 28.707-15.727 0-28.707-12.979-28.707-28.707 0-15.728 12.98-28.319 28.707-28.319z" fill="#877eff" fill-opacity="1" fill-rule="nonzero" stroke="none" marker="none" visibility="visible" display="inline" overflow="visible" color="#877eff" enable-background="accumulate" data-fill-palette-color="accent"></path></svg><g></g></g></svg></g></svg></g><defs></defs></svg><rect width="395.52" height="79.82823902301998" fill="none" stroke="none" visibility="hidden"></rect></g></svg></g></svg>